HIERARCHY
ROOT Hips
{
	OFFSET 0.00000 0.00000 0.00000
	CHANNELS 6 Xposition Yposition Zposition Zrotation Yrotation Xrotation 
	JOINT LHipJoint
	{
		OFFSET 0 0 0
		CHANNELS 3 Zrotation Yrotation Xrotation
		JOINT LeftUpLeg
		{
			OFFSET 1.65674 -1.80282 0.62477
			CHANNELS 3 Zrotation Yrotation Xrotation
			JOINT LeftLeg
			{
				OFFSET 2.59720 -7.13576 0.00000
				CHANNELS 3 Zrotation Yrotation Xrotation
				JOINT LeftFoot
				{
					OFFSET 2.49236 -6.84770 0.00000
					CHANNELS 3 Zrotation Yrotation Xrotation
					JOINT LeftToeBase
					{
						OFFSET 0.19704 -0.54136 2.14581
						CHANNELS 3 Zrotation Yrotation Xrotation
						End Site
						{
							OFFSET 0.00000 -0.00000 1.11249
						}
					}
				}
			}
		}
	}
	JOINT RHipJoint
	{
		OFFSET 0 0 0
		CHANNELS 3 Zrotation Yrotation Xrotation
		JOINT RightUpLeg
		{
			OFFSET -1.61070 -1.80282 0.62476
			CHANNELS 3 Zrotation Yrotation Xrotation
			JOINT RightLeg
			{
				OFFSET -2.59502 -7.12977 0.00000
				CHANNELS 3 Zrotation Yrotation Xrotation
				JOINT RightFoot
				{
					OFFSET -2.46780 -6.78024 0.00000
					CHANNELS 3 Zrotation Yrotation Xrotation
					JOINT RightToeBase
					{
						OFFSET -0.23024 -0.63258 2.13368
						CHANNELS 3 Zrotation Yrotation Xrotation
						End Site
						{
							OFFSET -0.00000 -0.00000 1.11569
						}
					}
				}
			}
		}
	}
	JOINT LowerBack
	{
		OFFSET 0 0 0
		CHANNELS 3 Zrotation Yrotation Xrotation
		JOINT Spine
		{
			OFFSET 0.01961 2.05450 -0.14112
			CHANNELS 3 Zrotation Yrotation Xrotation
			JOINT Spine1
			{
				OFFSET 0.01021 2.06436 -0.05921
				CHANNELS 3 Zrotation Yrotation Xrotation
				JOINT Neck
				{
					OFFSET 0 0 0
					CHANNELS 3 Zrotation Yrotation Xrotation
					JOINT Neck1
					{
						OFFSET 0.00713 1.56711 0.14968
						CHANNELS 3 Zrotation Yrotation Xrotation
						JOINT Head
						{
							OFFSET 0.03429 1.56041 -0.10006
							CHANNELS 3 Zrotation Yrotation Xrotation
							End Site
							{
								OFFSET 0.01305 1.62560 -0.05265
							}
						}
					}
				}
				JOINT LeftShoulder
				{
					OFFSET 0 0 0
					CHANNELS 3 Zrotation Yrotation Xrotation
					JOINT LeftArm
					{
						OFFSET 3.54205 0.90436 -0.17364
						CHANNELS 3 Zrotation Yrotation Xrotation
						JOINT LeftForeArm
						{
							OFFSET 4.86513 -0.00000 -0.00000
							CHANNELS 3 Zrotation Yrotation Xrotation
							JOINT LeftHand
							{
								OFFSET 3.35554 -0.00000 0.00000
								CHANNELS 3 Zrotation Yrotation Xrotation
								JOINT LeftFingerBase
								{
									OFFSET 0 0 0
									CHANNELS 3 Zrotation Yrotation Xrotation
									JOINT LeftHandIndex1
									{
										OFFSET 0.66117 -0.00000 0.00000
										CHANNELS 3 Zrotation Yrotation Xrotation
										End Site
										{
											OFFSET 0.53306 -0.00000 0.00000
										}
									}
								}
								JOINT LThumb
								{
									OFFSET 0 0 0
									CHANNELS 3 Zrotation Yrotation Xrotation
									End Site
									{
										OFFSET 0.54120 -0.00000 0.54120
									}
								}
							}
						}
					}
				}
				JOINT RightShoulder
				{
					OFFSET 0 0 0
					CHANNELS 3 Zrotation Yrotation Xrotation
					JOINT RightArm
					{
						OFFSET -3.49802 0.75994 -0.32616
						CHANNELS 3 Zrotation Yrotation Xrotation
						JOINT RightForeArm
						{
							OFFSET -5.02649 -0.00000 0.00000
							CHANNELS 3 Zrotation Yrotation Xrotation
							JOINT RightHand
							{
								OFFSET -3.36431 -0.00000 0.00000
								CHANNELS 3 Zrotation Yrotation Xrotation
								JOINT RightFingerBase
								{
									OFFSET 0 0 0
									CHANNELS 3 Zrotation Yrotation Xrotation
									JOINT RightHandIndex1
									{
										OFFSET -0.73041 -0.00000 0.00000
										CHANNELS 3 Zrotation Yrotation Xrotation
										End Site
										{
											OFFSET -0.58887 -0.00000 0.00000
										}
									}
								}
								JOINT RThumb
								{
									OFFSET 0 0 0
									CHANNELS 3 Zrotation Yrotation Xrotation
									End Site
									{
										OFFSET -0.59786 -0.00000 0.59786
									}
								}
							}
						}
					}
				}
			}
		}
	}
}
MOTION
Frames: 7
Frame Time: .0083333
10.049100 17.496900 -0.566500 1.940100 -2.892200 -5.474000 0.000000 0.000000 0.000000 -28.384100 -3.653500 -5.446600 2.371600 9.600600 27.692800 0.645300 5.443300 -18.125100 0.075700 -1.775200 -4.884800 0.000000 0.000000 0.000000 18.683200 8.070800 -12.764600 -13.115400 -18.823400 69.483600 0.752800 -15.588100 -9.759100 -0.789900 5.673500 -15.839800 -1.210400 -0.080000 6.122400 0.279300 -0.176400 1.652000 0.979700 -0.085700 -1.726300 3.604200 7.848700 -8.225400 -3.913900 10.408300 5.773600 -1.289000 5.075400 3.793000 0.000000 0.000000 0.000000 -90.936500 3.502600 23.892300 22.614000 -33.664000 -6.923100 -0.000000 0.000000 -25.308900 23.517800 22.464800 9.441300 -7.125000 0.000000 -0.000000 -5.748900 54.161600 -1.297700 0.000000 0.000000 0.000000 85.654800 0.976800 31.493100 -16.173700 25.755600 -3.721100 0.000000 -0.000000 -10.833800 -22.597800 14.829500 -6.080600 7.125000 -0.000000 -0.000000 3.347900 -13.997600 2.442900
10.053000 17.491900 -0.415300 1.732600 -2.432400 -5.305900 0.000000 0.000000 0.000000 -28.254400 -3.716900 -5.060600 2.379400 9.615200 27.739400 0.688500 5.176600 -18.402400 0.115600 -2.191600 -6.035500 0.000000 0.000000 0.000000 18.783500 8.510400 -14.112700 -12.973100 -18.772400 69.041900 0.678700 -15.301600 -11.226900 -0.717400 5.412500 -15.089100 -1.039800 -0.183100 6.193500 0.379500 -0.301900 1.533600 0.997100 -0.147100 -1.884900 3.514500 7.689500 -7.870800 -3.951000 10.210100 5.542700 -1.317800 4.980800 3.631100 0.000000 -0.000000 0.000000 -90.527000 3.235000 25.264900 23.790300 -34.941800 -7.586100 -0.000000 0.000000 -26.020100 23.763800 22.631800 9.616300 -7.125000 0.000000 -0.000000 -5.549600 54.385500 -1.282900 0.000000 -0.000000 0.000000 85.748000 0.049400 30.915800 -15.585100 24.954900 -3.469100 0.000000 -0.000000 -11.308200 -22.601000 15.386300 -6.302800 7.125000 -0.000000 -0.000000 3.379400 -13.402700 2.508500
10.059000 17.481200 -0.255900 1.981500 -1.945000 -5.153700 0.000000 0.000000 0.000000 -28.656700 -3.776200 -4.548200 2.372300 9.601900 27.697100 0.780000 4.640000 -18.998200 0.056900 -1.539600 -4.235000 0.000000 0.000000 0.000000 18.276800 8.835600 -15.438000 -12.785800 -18.703500 68.459000 0.626100 -15.034700 -11.850700 -0.775400 5.622400 -15.692700 -1.417400 -0.325500 6.119000 0.391400 -0.514100 1.479300 1.237300 -0.251200 -1.890400 3.625300 7.629600 -7.614100 -4.124700 10.136100 5.443800 -1.410100 4.944200 3.563300 0.000000 0.000000 0.000000 -90.270500 2.967700 26.222900 25.103700 -36.309800 -8.351200 -0.000000 0.000000 -26.544500 24.031700 22.731700 9.776100 -7.125000 0.000000 -0.000000 -5.303700 54.543700 -1.246200 0.000000 0.000000 0.000000 85.776600 -0.826700 30.549000 -15.076600 24.252800 -3.257400 0.000000 -0.000000 -12.028200 -22.730200 16.274800 -6.696000 7.125000 -0.000000 -0.000000 3.350300 -12.438500 2.554500
10.061900 17.459200 -0.094500 2.280900 -1.497900 -5.216400 0.000000 0.000000 0.000000 -29.120600 -3.639200 -3.730600 2.334700 9.531000 27.470800 0.844400 4.301400 -19.433100 0.056200 -1.529100 -4.206100 0.000000 0.000000 0.000000 17.789700 9.221200 -16.454100 -12.560200 -18.617500 67.753700 0.580700 -14.702800 -12.046300 -0.839900 5.845800 -16.337800 -1.779000 -0.406500 6.082600 0.347400 -0.643700 1.631400 1.403600 -0.317500 -1.705700 3.478400 7.585800 -7.609500 -4.000600 10.077200 5.295000 -1.351000 4.918100 3.489500 -0.000000 -0.000000 0.000000 -90.032000 2.346500 27.045900 26.371100 -37.572800 -9.113000 -0.000000 0.000000 -26.753700 24.121500 22.074600 9.552100 -7.125000 0.000000 -0.000000 -4.994700 53.868500 -1.091100 -0.000000 -0.000000 0.000000 86.029900 -1.247500 29.299300 -14.398900 23.302200 -2.984100 0.000000 -0.000000 -11.535100 -22.534600 15.893900 -6.482700 7.125000 -0.000000 -0.000000 3.456000 -12.869500 2.604200
10.068100 17.435400 0.083800 2.684600 -1.019400 -5.550000 0.000000 0.000000 0.000000 -29.757400 -3.333600 -2.504000 2.292300 9.450100 27.213700 0.893200 4.141500 -19.813700 0.095100 -1.989200 -5.475800 0.000000 0.000000 0.000000 17.191600 9.446600 -16.961400 -12.256400 -18.496900 66.799100 0.469200 -13.955500 -12.717000 -0.828100 5.805800 -16.222000 -2.130100 -0.509400 6.120400 0.222600 -0.803200 1.860700 1.482700 -0.400800 -1.481600 3.245600 7.584800 -7.491900 -3.739800 10.076900 5.127900 -1.234000 4.926100 3.375400 -0.000000 -0.000000 0.000000 -89.748600 1.735100 27.748000 27.539100 -38.688500 -9.834300 -0.000000 0.000000 -26.988600 24.071600 20.446400 8.869800 -7.125000 0.000000 -0.000000 -4.558500 52.135000 -0.802100 -0.000000 -0.000000 0.000000 86.291000 -1.721800 28.052500 -13.735100 22.354700 -2.726500 0.000000 -0.000000 -10.547400 -22.241900 14.388400 -5.802500 7.125000 -0.000000 -0.000000 3.564600 -14.509500 2.562900
10.079300 17.415400 0.259600 2.968400 -0.410600 -5.844300 0.000000 0.000000 0.000000 -30.262400 -3.136300 -1.338800 2.267700 9.402700 27.063400 0.975400 3.707700 -20.345000 0.069700 -1.703300 -4.686300 0.000000 0.000000 0.000000 16.652300 9.501500 -17.393100 -11.861700 -18.331600 65.549800 0.320900 -13.012000 -13.685700 -0.775700 5.623500 -15.695700 -2.478600 -0.680600 6.415200 0.206300 -1.059600 1.930400 1.684000 -0.528300 -1.557000 3.353300 7.613600 -7.529000 -3.863400 10.120100 5.320300 -1.284900 4.943000 3.466900 0.000000 -0.000000 0.000000 -89.656900 1.443100 28.234300 28.811600 -39.852800 -10.639800 -0.000000 0.000000 -27.059400 23.873900 19.380500 8.355300 -7.125000 0.000000 -0.000000 -4.469100 50.967500 -0.658200 0.000000 -0.000000 0.000000 86.325600 -2.605500 26.947900 -13.274400 21.687900 -2.553800 0.000000 -0.000000 -9.744700 -22.002900 13.862900 -5.530100 7.125000 -0.000000 -0.000000 3.700400 -15.096100 2.614500
10.083300 17.405700 0.409100 2.508200 0.067900 -5.637400 0.000000 0.000000 0.000000 -29.815000 -3.190300 -0.918500 2.257200 9.382400 26.998900 1.035000 3.325400 -20.687300 0.069400 -1.699400 -4.675600 0.000000 0.000000 0.000000 16.981400 10.010800 -18.352900 -11.382700 -18.117300 64.018300 0.201800 -12.368000 -14.621000 -0.639100 5.114800 -14.236200 -2.207100 -0.832000 6.662400 0.453800 -1.245900 1.752000 1.807300 -0.615900 -1.869900 3.453600 7.596100 -7.790900 -3.952200 10.101300 5.735100 -1.315000 4.925400 3.675000 -0.000000 -0.000000 0.000000 -89.478300 1.260400 28.981300 30.184400 -41.051000 -11.530600 -0.000000 0.000000 -27.178100 23.604300 19.243100 8.195300 -7.125000 0.000000 -0.000000 -4.701200 50.775400 -0.670300 -0.000000 -0.000000 0.000000 86.435900 -3.417100 25.301900 -12.744800 20.912200 -2.361400 0.000000 -0.000000 -8.750400 -21.593300 14.045600 -5.486800 7.125000 -0.000000 -0.000000 3.989200 -14.946000 2.832400
